<?xml version="1.0"?>
<svg xmlns="http://www.w3.org/2000/svg" xmlns:xlink="http://www.w3.org/1999/xlink" xmlns:svgjs="http://svgjs.com/svgjs" version="1.1" width="512" height="512" x="0" y="0" viewBox="0 0 512.6 512.6" style="enable-background:new 0 0 512 512" xml:space="preserve" class=""><g><g xmlns="http://www.w3.org/2000/svg" id="XMLID_2237_"><g id="XMLID_1097_"><path id="XMLID_1136_" d="m322.703 291.347c-3.905-3.905-10.237-3.905-14.143 0l-102.796 102.797c-11.71 11.71-27.279 18.159-43.84 18.159s-32.131-6.449-43.841-18.159c-24.174-24.174-24.174-63.508 0-87.681l102.797-102.797c3.905-3.905 3.905-10.237 0-14.142l-56.568-56.569c-1.876-1.875-4.419-2.929-7.071-2.929s-5.195 1.054-7.071 2.929l-102.798 102.796c-63.163 63.164-63.163 165.939 0 229.104 25.025 25.025 56.727 40.875 91.674 45.833 7.497 1.064 15.057 1.59 22.614 1.59 26.505 0 52.949-6.469 76.281-18.873 4.876-2.592 6.728-8.647 4.136-13.524-2.593-4.876-8.648-6.729-13.524-4.135-52.512 27.916-115.485 20.371-159.768-18.252l42.618-42.618c14.367 11.285 31.967 17.427 50.521 17.427 21.903 0 42.495-8.53 57.982-24.017l50.471-50.47 42.426 42.426-18.651 18.652c-3.905 3.905-3.905 10.237 0 14.143 3.906 3.905 10.236 3.905 14.143 0l70.978-70.979c3.905-3.905 3.905-10.237 0-14.142zm-165.463-137.179 42.426 42.427-31.112 31.112-42.426-42.427zm-95.725 95.726 50.471-50.471 42.426 42.426-50.471 50.471c-29.561 29.561-31.766 76.251-6.663 108.397l-42.624 42.623c-48.394-55.719-46.113-140.473 6.861-193.446zm265.431 136.205-42.426-42.426 31.112-31.113 42.426 42.426z" fill="#68dea6" data-original="#000000" style="" class=""/><path id="XMLID_1157_" d="m501.41 11.493c-14.716-14.715-38.549-14.893-53.485-.533-14.937-14.361-38.771-14.181-53.487.534-14.896 14.896-14.896 39.133 0 54.029l46.411 46.411c1.953 1.953 4.512 2.929 7.071 2.929s5.118-.976 7.07-2.928l46.418-46.411c7.217-7.216 11.191-16.81 11.191-27.015s-3.973-19.8-11.189-27.016zm-14.142 39.887-39.347 39.341-39.341-39.34c-7.098-7.098-7.098-18.647.001-25.746 3.549-3.549 8.21-5.323 12.872-5.323s9.323 1.774 12.872 5.323l6.529 6.528c1.875 1.875 4.419 2.929 7.07 2.929 2.652 0 5.196-1.054 7.071-2.929l6.527-6.527c7.098-7.098 18.646-7.097 25.744 0 3.438 3.439 5.332 8.011 5.332 12.874s-1.892 9.432-5.33 12.87z" fill="#68dea6" data-original="#000000" style="" class=""/><path id="XMLID_1160_" d="m292.777 162.564c1.953 1.953 4.512 2.929 7.071 2.929s5.118-.976 7.07-2.928l46.418-46.411c7.217-7.216 11.191-16.81 11.192-27.015 0-10.205-3.974-19.799-11.189-27.016-14.717-14.715-38.551-14.892-53.486-.532-14.912-14.339-38.697-14.184-53.418.465-.023.023-.047.046-.069.069-14.895 14.896-14.895 39.133 0 54.029zm-32.314-86.253c.016-.015.031-.031.047-.046 7.097-7.098 18.646-7.098 25.744 0l6.527 6.528c1.875 1.875 4.419 2.929 7.071 2.929s5.195-1.054 7.071-2.929l6.528-6.528c7.098-7.098 18.646-7.097 25.744 0 3.438 3.438 5.332 8.01 5.332 12.873-.001 4.863-1.895 9.435-5.333 12.873l-39.347 39.341-39.341-39.34c-7.08-7.084-7.095-18.6-.043-25.701z" fill="#68dea6" data-original="#000000" style="" class=""/><path id="XMLID_1168_" d="m429.197 153.804c-9.952 0-19.322 3.779-26.472 10.658-7.15-6.878-16.521-10.658-26.472-10.658-10.175 0-19.741 3.951-26.949 11.126-.022.021-.044.043-.066.065-7.216 7.216-11.189 16.81-11.189 27.015s3.974 19.798 11.189 27.014l46.411 46.411c1.953 1.953 4.512 2.929 7.071 2.929s5.118-.976 7.07-2.928l46.418-46.411c7.217-7.216 11.191-16.81 11.192-27.015 0-10.205-3.974-19.799-11.189-27.016-7.216-7.215-16.81-11.19-27.014-11.19zm12.871 51.078-39.347 39.341-39.341-39.341c-3.438-3.438-5.332-8.009-5.332-12.872 0-4.841 1.877-9.394 5.287-12.827.016-.016.031-.031.047-.047 3.438-3.438 8.009-5.332 12.871-5.332 4.863 0 9.434 1.894 12.873 5.333l6.527 6.528c3.906 3.905 10.236 3.905 14.143 0l6.528-6.528c3.438-3.438 8.009-5.332 12.872-5.332 4.862 0 9.434 1.894 12.872 5.333 3.438 3.438 5.332 8.01 5.332 12.872s-1.894 9.434-5.332 12.872z" fill="#68dea6" data-original="#000000" style="" class=""/><path id="XMLID_1169_" d="m282.258 215.866-23.409 23.409c-3.905 3.905-3.905 10.237 0 14.142 1.953 1.953 4.512 2.929 7.071 2.929s5.118-.977 7.071-2.929l23.409-23.409c3.905-3.905 3.905-10.237 0-14.142-3.904-3.905-10.234-3.904-14.142 0z" fill="#68dea6" data-original="#000000" style="" class=""/><path id="XMLID_1173_" d="m190.174 117.093c2.56 0 5.118-.977 7.071-2.929l12.27-12.27c3.905-3.905 3.905-10.237 0-14.142-3.906-3.905-10.236-3.905-14.143 0l-12.27 12.27c-3.905 3.905-3.905 10.237 0 14.142 1.954 1.953 4.513 2.929 7.072 2.929z" fill="#68dea6" data-original="#000000" style="" class=""/><path id="XMLID_1174_" d="m408.204 304.841-12.271 12.27c-3.905 3.905-3.905 10.237 0 14.142 1.953 1.953 4.512 2.929 7.071 2.929s5.118-.977 7.071-2.929l12.271-12.27c3.905-3.905 3.905-10.237 0-14.142-3.904-3.904-10.234-3.905-14.142 0z" fill="#68dea6" data-original="#000000" style="" class=""/><path id="XMLID_1175_" d="m269.402 447.783c-2.63 0-5.21 1.07-7.07 2.93-1.859 1.86-2.93 4.44-2.93 7.07 0 2.64 1.07 5.21 2.93 7.07s4.44 2.93 7.07 2.93c2.64 0 5.21-1.07 7.07-2.93 1.859-1.86 2.93-4.43 2.93-7.07 0-2.63-1.07-5.21-2.93-7.07-1.851-1.86-4.431-2.93-7.07-2.93z" fill="#68dea6" data-original="#000000" style="" class=""/></g></g></g></svg>
