<svg xmlns="http://www.w3.org/2000/svg" width="982.488" height="763.014" viewBox="0 0 982.488 763.014">
  <g id="undraw_Location_search_re_ttoj_1_" data-name="undraw_Location_search_re_ttoj (1)" transform="translate(0 0)">
    <circle id="Ellipse_1" data-name="Ellipse 1" cx="40.03" cy="40.03" r="40.03" transform="translate(519.403 293.031)" fill="#e6e6e6"/>
    <path id="Path_2" data-name="Path 2" d="M766.295,452.995l-41.832-41.832a44.306,44.306,0,1,0-13.307,13.307L752.988,466.3A9.409,9.409,0,1,0,766.3,452.995Zm-56.7-43.394a31.684,31.684,0,1,1,9.28-22.4A31.684,31.684,0,0,1,709.594,409.6Z" transform="translate(-108.756 -68.493)" fill="#17212a"/>
    <path id="Path_3" data-name="Path 3" d="M1069.53,514.7c106.98,118.308-203.138,288.808-453.72,288.808S191.863,671.4,162.09,514.7C89.9,134.752,777.167-106.741,615.81,225.891,380.612,710.739,985.28,421.528,1069.53,514.7Z" transform="translate(-108.756 -68.493)" fill="#e6e6e6"/>
    <path id="Path_4" data-name="Path 4" d="M1021.53,542.7c106.98,118.308-203.138,288.808-453.72,288.808S143.863,699.4,114.09,542.7C41.9,162.752,729.167-78.741,567.81,253.891,332.612,738.739,937.28,449.528,1021.53,542.7Z" transform="translate(-108.756 -68.493)" fill="#17212a"/>
    <path id="Path_5" data-name="Path 5" d="M258.35,265.318c-75.067-3.305-133.271-19.5-132.507-36.864.458-10.412,21.7-18.784,58.287-22.969a1,1,0,1,1,.227,1.987c-34.462,3.943-56.117,12.017-56.516,21.07-.691,15.7,59.114,31.631,130.6,34.778s132.456-7.461,133.148-23.165c.4-9.092-20.6-19.066-54.8-26.028a1,1,0,1,1,.4-1.96c36.3,7.391,56.857,17.624,56.4,28.076C392.82,257.609,333.418,268.623,258.35,265.318Z" transform="translate(-108.756 -68.493)" fill="#68dea6"/>
    <path id="Path_6" data-name="Path 6" d="M191.679,268.227a76.983,76.983,0,0,0,133.036,5.522,1211.985,1211.985,0,0,1-133.036-5.522Z" transform="translate(-108.756 -68.493)" fill="#68dea6"/>
    <path id="Path_7" data-name="Path 7" d="M333.019,252.713a77,77,0,1,0-147.749-5.706,572.233,572.233,0,0,0,147.749,5.706Z" transform="translate(-108.756 -68.493)" fill="#68dea6"/>
    <circle id="Ellipse_2" data-name="Ellipse 2" cx="9" cy="9" r="9" transform="translate(159.834 114.601)" fill="#fff"/>
    <circle id="Ellipse_3" data-name="Ellipse 3" cx="15" cy="15" r="15" transform="translate(107.513 137.591)" fill="#fff"/>
    <circle id="Ellipse_4" data-name="Ellipse 4" cx="10" cy="10" r="10" transform="translate(338.905 132.898)" fill="#68dea6"/>
    <circle id="Ellipse_5" data-name="Ellipse 5" cx="6" cy="6" r="6" transform="translate(116.905 446.898)" fill="#e6e6e6"/>
    <circle id="Ellipse_6" data-name="Ellipse 6" cx="6" cy="6" r="6" transform="translate(536.905 652.898)" fill="#e6e6e6"/>
    <circle id="Ellipse_7" data-name="Ellipse 7" cx="3" cy="3" r="3" transform="translate(148.905 336.898)" fill="#e6e6e6"/>
    <circle id="Ellipse_8" data-name="Ellipse 8" cx="3" cy="3" r="3" transform="translate(396.905 560.898)" fill="#e6e6e6"/>
    <circle id="Ellipse_9" data-name="Ellipse 9" cx="3" cy="3" r="3" transform="translate(847.905 531.898)" fill="#e6e6e6"/>
    <circle id="Ellipse_10" data-name="Ellipse 10" cx="3" cy="3" r="3" transform="translate(706.905 620.898)" fill="#e6e6e6"/>
    <circle id="Ellipse_11" data-name="Ellipse 11" cx="3" cy="3" r="3" transform="translate(559.905 512.898)" fill="#e6e6e6"/>
    <circle id="Ellipse_12" data-name="Ellipse 12" cx="3" cy="3" r="3" transform="translate(369.905 216.898)" fill="#e6e6e6"/>
    <circle id="Ellipse_13" data-name="Ellipse 13" cx="3" cy="3" r="3" transform="translate(393.905 68.898)" fill="#e6e6e6"/>
    <circle id="Ellipse_14" data-name="Ellipse 14" cx="3" cy="3" r="3" transform="translate(379.905 691.898)" fill="#e6e6e6"/>
    <circle id="Ellipse_15" data-name="Ellipse 15" cx="3" cy="3" r="3" transform="translate(231.905 628.898)" fill="#e6e6e6"/>
    <circle id="Ellipse_16" data-name="Ellipse 16" cx="3" cy="3" r="3" transform="translate(700.905 520.898)" fill="#e6e6e6"/>
    <circle id="Ellipse_17" data-name="Ellipse 17" cx="9" cy="9" r="9" transform="translate(139.374 215.799)" fill="#fff"/>
    <path id="Path_8" data-name="Path 8" d="M460.661,431.391c0,26.88-41.559,89.516-53.7,107.247a3.992,3.992,0,0,1-6.591,0c-12.145-17.731-53.7-80.366-53.7-107.247a57,57,0,0,1,114,0Z" transform="translate(-108.756 -68.493)" fill="#fff"/>
    <circle id="Ellipse_18" data-name="Ellipse 18" cx="29" cy="29" r="29" transform="translate(265.905 329.898)" fill="#68dea6"/>
    <ellipse id="Ellipse_19" data-name="Ellipse 19" cx="33.5" cy="6.5" rx="33.5" ry="6.5" transform="translate(260.905 489.898)" fill="#fff"/>
    <path id="Path_9" data-name="Path 9" d="M925.61,386.412a10.522,10.522,0,0,0-.641,1.529l-47.783,13.277-8.611-8.427-14.416,11.333,13.794,16.4a8,8,0,0,0,9.353,2.169l51.616-22.785a10.5,10.5,0,1,0-3.313-13.5Z" transform="translate(-108.756 -68.493)" fill="#ffb8b8"/>
    <path id="Path_10" data-name="Path 10" d="M875.5,402l-17.935,13.96a4.5,4.5,0,0,1-6.682-1.337l-11.147-19.727A12.5,12.5,0,0,1,859.507,379.6l16.338,15.594A4.5,4.5,0,0,1,875.5,402Z" transform="translate(-108.756 -68.493)" fill="#68dea6"/>
    <path id="Path_11" data-name="Path 11" d="M930.192,379.81l18.188,8.183a3.149,3.149,0,0,1,1.58,4.164l-2.153,4.786a1.053,1.053,0,0,1,.527,1.388l-.861,1.915a1.053,1.053,0,0,1-1.388.527l-.861,1.914a1.053,1.053,0,0,1,.527,1.388l-.861,1.914a1.053,1.053,0,0,1-1.388.527l-11.629,25.846a3.149,3.149,0,0,1-4.164,1.58l-18.188-8.183a3.149,3.149,0,0,1-1.58-4.164l18.089-40.205a3.149,3.149,0,0,1,4.164-1.58Z" transform="translate(-108.756 -68.493)" fill="#3f3d56"/>
    <path id="Path_12" data-name="Path 12" d="M912.821,423.212l14.591,6.571a3.034,3.034,0,0,0,4-1.512l6.739-14.989,2.341-5.2,6.1-13.562a3.026,3.026,0,0,0-1.512-3.989l-4.587-2.068-10.014-4.5a3.021,3.021,0,0,0-3.989,1.522l-5.9,13.111-6.718,14.927-2.561,5.7a3.022,3.022,0,0,0,1.511,3.989Z" transform="translate(-108.756 -68.493)" fill="#f2f2f2"/>
    <path id="Path_13" data-name="Path 13" d="M773.577,540.443h12.26l5.833-47.288H773.575Z" fill="#ffb8b8"/>
    <path id="Path_14" data-name="Path 14" d="M879.207,604.933h24.145a15.386,15.386,0,0,1,15.387,15.387v.5H879.208Z" transform="translate(-108.756 -68.493)" fill="#64829d"/>
    <path id="Path_15" data-name="Path 15" d="M805.577,537.443h12.26l5.833-47.288H805.575Z" fill="#ffb8b8"/>
    <path id="Path_16" data-name="Path 16" d="M911.207,601.933h24.145a15.386,15.386,0,0,1,15.387,15.387v.5H911.208Z" transform="translate(-108.756 -68.493)" fill="#64829d"/>
    <path id="Path_17" data-name="Path 17" d="M827.341,497.971a39.41,39.41,0,0,0,36.9,26.81l.62.01c6.33.18,13.76-1.86,21.05-4.79,14.4-5.79,28.23-15.06,31.9-17.61l-6.22,59.79-2.52,24.24a4.514,4.514,0,0,0,4.48,4.97h15.53a4.505,4.505,0,0,0,4.36-3.36l25.64-97.65a19.032,19.032,0,0,0-19.71-23.83l-53.26,3.65,3.72-14.88-47.54-3.16-.14.1c-1.14.83-2.25,1.7-3.31,2.61a40.269,40.269,0,0,0-6.99,7.66A38.487,38.487,0,0,0,827.341,497.971Z" transform="translate(-108.756 -68.493)" fill="#64829d"/>
    <path id="Path_18" data-name="Path 18" d="M827.341,497.971a39.41,39.41,0,0,0,36.9,26.81,196.16,196.16,0,0,0,22.57-13.39l-.9,8.61-7.84,75.42a4.514,4.514,0,0,0,4.48,4.97h15.53a4.505,4.505,0,0,0,4.36-3.36l9.15-34.85,16.49-62.8a19.032,19.032,0,0,0-19.71-23.83l-53.26,3.65,3.72-14.88-26.98-1.79A38.487,38.487,0,0,0,827.341,497.971Z" transform="translate(-108.756 -68.493)" fill="#64829d"/>
    <path id="Path_19" data-name="Path 19" d="M838.773,458.321l-.358-.043-8.3-40.785c-.071-.354-6.852-35.533,13.937-53.924l.362-2.517a4.5,4.5,0,0,1,5.787-3.658l19.585,6.075a4.491,4.491,0,0,1,3.019,5.442l-1.9,7.242c2.64,3.1,33.715,40.512,22.89,69.335l-4.847,18.952Z" transform="translate(-108.756 -68.493)" fill="#68dea6"/>
    <path id="Path_20" data-name="Path 20" d="M920.094,426.49a10.529,10.529,0,0,0-1.329.99l-47.9-12.858-3.131-11.634-18.175,2.431,3.542,21.134a8,8,0,0,0,6.951,6.622l56.032,6.619a10.5,10.5,0,1,0,4.008-13.305Z" transform="translate(-108.756 -68.493)" fill="#ffb8b8"/>
    <path id="Path_21" data-name="Path 21" d="M869.022,414.436l-22.541,2.9a4.5,4.5,0,0,1-5.074-4.548l.43-22.655a12.5,12.5,0,1,1,24.8-3.121l6.142,21.734a4.5,4.5,0,0,1-3.756,5.686Z" transform="translate(-108.756 -68.493)" fill="#68dea6"/>
    <circle id="Ellipse_20" data-name="Ellipse 20" cx="24.561" cy="24.561" r="24.561" transform="translate(729.36 234.243)" fill="#ffb8b8"/>
    <path id="Path_22" data-name="Path 22" d="M861.385,329.348l-3.075-5.6c-5.825,23.732,4.464,43.373,4.464,43.373l-39.932-18.6.38-6.6L819.27,346.4l-5.677-3.129-.75-4.281-4.286,1.062L824.2,311.669c15.182-27.013,37.255-16.7,37.255-16.7,35.115-1.669,30.827,32.975,30.827,32.975Z" transform="translate(-108.756 -68.493)" fill="#17212a"/>
    <ellipse id="Ellipse_21" data-name="Ellipse 21" cx="12.179" cy="47.5" rx="12.179" ry="47.5" transform="matrix(0.842, -0.54, 0.54, 0.842, 411.514, 370.48)" fill="#17212a"/>
  </g>
</svg>
