<svg xmlns="http://www.w3.org/2000/svg" xmlns:xlink="http://www.w3.org/1999/xlink" width="439" height="348" viewBox="0 0 439 348">
  <defs>
    <clipPath id="clip-Twitter_Post_4">
      <rect width="439" height="348"/>
    </clipPath>
  </defs>
  <g id="Twitter_Post_4" data-name="Twitter Post – 4" clip-path="url(#clip-Twitter_Post_4)">
    <rect width="439" height="348"/>
    <path id="Path_1" data-name="Path 1" d="M330.505,567.769c7.493-14.985-11.655-235.6-52.448-203.964S202.3,542.794,222.279,567.769,323.013,582.755,330.505,567.769Z" transform="translate(-112 -335.706)" fill="none" stroke="#fff" stroke-width="1"/>
    <path id="Path_2" data-name="Path 2" d="M218.039,561.658c-7.271-14.543,11.311-228.646,50.9-197.944s73.522,173.706,54.132,197.944S225.311,576.2,218.039,561.658Z" transform="translate(12.804 -329.146)" fill="none" stroke="#fff" stroke-width="1"/>
    <path id="Path_3" data-name="Path 3" d="M341.3,401.268v63.271s-4.131,41.625-44.923,40.793" transform="translate(-112 -335.706)" fill="none" stroke="#fff" stroke-width="2"/>
    <path id="Path_4" data-name="Path 4" d="M341.3,467.869s-2.208,31.908,33.332,35.784" transform="translate(-112 -337.545)" fill="none" stroke="#fff" stroke-width="2"/>
    <line id="Line_4" data-name="Line 4" x1="16" y2="22" transform="translate(160.5 38.5)" fill="none" stroke="#ff0909" stroke-width="1"/>
    <line id="Line_5" data-name="Line 5" x1="5" y2="16" transform="translate(143.5 69.5)" fill="none" stroke="#ff0909" stroke-width="1"/>
    <line id="Line_6" data-name="Line 6" x1="2" y2="8" transform="translate(115.5 102.5)" fill="none" stroke="#ff0909" stroke-width="1"/>
    <line id="Line_7" data-name="Line 7" x1="2" y2="12" transform="translate(110.5 127.5)" fill="none" stroke="#ff0909" stroke-width="1"/>
    <line id="Line_8" data-name="Line 8" x1="1" y2="14" transform="translate(107.5 155.5)" fill="none" stroke="#ff0909" stroke-width="1"/>
    <line id="Line_9" data-name="Line 9" x1="1" y2="8" transform="translate(106.5 191.5)" fill="none" stroke="#ff0909" stroke-width="1"/>
    <line id="Line_10" data-name="Line 10" x2="1" y2="3" transform="translate(111.5 217.5)" fill="none" stroke="#ff0909" stroke-width="1"/>
    <line id="Line_11" data-name="Line 11" x2="1" y2="1" transform="translate(138.5 229.5)" fill="none" stroke="#ff0909" stroke-width="1"/>
    <line id="Line_12" data-name="Line 12" x2="8" transform="translate(158.5 236.5)" fill="none" stroke="#ff0909" stroke-width="1"/>
    <line id="Line_13" data-name="Line 13" y1="1" x2="9" transform="translate(178.5 235.5)" fill="none" stroke="#ff0909" stroke-width="1"/>
    <line id="Line_14" data-name="Line 14" y1="1" x2="1" transform="translate(198.5 234.5)" fill="none" stroke="#ff0909" stroke-width="1"/>
    <line id="Line_15" data-name="Line 15" y1="8" transform="translate(203.5 215.5)" fill="none" stroke="red" stroke-width="1"/>
    <line id="Line_16" data-name="Line 16" x1="1" y1="5" transform="translate(202.5 199.5)" fill="none" stroke="red" stroke-width="1"/>
    <line id="Line_19" data-name="Line 19" x1="1" y1="4" transform="translate(198.5 100.5)" fill="none" stroke="red" stroke-width="1"/>
    <line id="Line_20" data-name="Line 20" x1="2" y1="4" transform="translate(193.5 81.5)" fill="none" stroke="#ff0909" stroke-width="1"/>
    <line id="Line_21" data-name="Line 21" x1="3" y1="1" transform="translate(187.5 68.5)" fill="none" stroke="#ff0909" stroke-width="1"/>
    <line id="Line_22" data-name="Line 22" x1="1" y2="5" transform="translate(267.5 42.5)" fill="none" stroke="#ff0909" stroke-width="1"/>
    <line id="Line_23" data-name="Line 23" x1="2" y2="7" transform="translate(260.5 65.5)" fill="none" stroke="#ff0909" stroke-width="1"/>
    <line id="Line_24" data-name="Line 24" x1="1" y2="6" transform="translate(249.5 102.5)" fill="none" stroke="#ff0909" stroke-width="1"/>
    <line id="Line_25" data-name="Line 25" y2="5" transform="translate(245.5 126.5)" fill="none" stroke="#ff0909" stroke-width="1"/>
    <line id="Line_26" data-name="Line 26" y2="5" transform="translate(245.5 139.5)" fill="none" stroke="#ff0909" stroke-width="1"/>
    <line id="Line_27" data-name="Line 27" y2="15" transform="translate(241.5 191.5)" fill="none" stroke="#ff0909" stroke-width="1"/>
    <line id="Line_28" data-name="Line 28" x2="1" y2="8" transform="translate(241.5 211.5)" fill="none" stroke="#ff0909" stroke-width="1"/>
    <line id="Line_29" data-name="Line 29" x2="5" y2="6" transform="translate(247.5 223.5)" fill="none" stroke="#ff0909" stroke-width="1"/>
    <line id="Line_30" data-name="Line 30" x2="31" y2="6" transform="translate(265.5 233.5)" fill="none" stroke="#ff0909" stroke-width="1"/>
    <line id="Line_31" data-name="Line 31" x2="1" transform="translate(303.5 236.5)" fill="none" stroke="#ff0909" stroke-width="1"/>
    <line id="Line_32" data-name="Line 32" y1="18" x2="5" transform="translate(318.5 208.5)" fill="none" stroke="#ff0909" stroke-width="1"/>
    <line id="Line_33" data-name="Line 33" x1="1" y1="11" transform="translate(322.5 177.5)" fill="none" stroke="#ff0909" stroke-width="1"/>
    <line id="Line_34" data-name="Line 34" x1="2" y1="9" transform="translate(314.5 148.5)" fill="none" stroke="#ff0909" stroke-width="1"/>
    <line id="Line_35" data-name="Line 35" x1="4" y1="23" transform="translate(304.5 100.5)" fill="none" stroke="#ff0909" stroke-width="1"/>
    <line id="Line_36" data-name="Line 36" x1="1" y1="2" transform="translate(300.5 87.5)" fill="none" stroke="#ff0909" stroke-width="1"/>
    <line id="Line_37" data-name="Line 37" x1="9" y1="16" transform="translate(281.5 56.5)" fill="none" stroke="#ff0909" stroke-width="1"/>
    <line id="Line_38" data-name="Line 38" x1="2" y1="4" transform="translate(277.5 45.5)" fill="none" stroke="#ff0909" stroke-width="1"/>
    <line id="Line_71" data-name="Line 71" x1="4" y2="25" transform="translate(158.5 77.5)" fill="none" stroke="red" stroke-width="1"/>
    <line id="Line_72" data-name="Line 72" y2="24" transform="translate(148.5 122.5)" fill="none" stroke="red" stroke-width="1"/>
    <line id="Line_73" data-name="Line 73" x2="2" y2="19" transform="translate(148.5 169.5)" fill="none" stroke="red" stroke-width="1"/>
    <line id="Line_74" data-name="Line 74" x2="13" transform="translate(160.5 208.5)" fill="none" stroke="red" stroke-width="1"/>
    <line id="Line_75" data-name="Line 75" y2="11" transform="translate(178.5 97.5)" fill="none" stroke="red" stroke-width="1"/>
    <line id="Line_78" data-name="Line 78" x2="4" y2="17" transform="translate(190.5 174.5)" fill="none" stroke="red" stroke-width="1"/>
    <line id="Line_79" data-name="Line 79" x1="2" y2="12" transform="translate(190.5 199.5)" fill="none" stroke="red" stroke-width="1"/>
    <line id="Line_80" data-name="Line 80" x1="20" y2="4" transform="translate(164.5 219.5)" fill="none" stroke="red" stroke-width="1"/>
    <line id="Line_81" data-name="Line 81" x2="2" y2="11" transform="translate(139.5 191.5)" fill="none" stroke="red" stroke-width="1"/>
    <line id="Line_82" data-name="Line 82" x1="2" y2="9" transform="translate(141.5 148.5)" fill="none" stroke="red" stroke-width="1"/>
    <line id="Line_84" data-name="Line 84" x2="4" y2="8" transform="translate(167.5 183.5)" fill="none" stroke="red" stroke-width="1"/>
    <line id="Line_86" data-name="Line 86" y2="13" transform="translate(171.5 100.5)" fill="none" stroke="red" stroke-width="1"/>
    <path id="Path_25" data-name="Path 25" d="M997.834,160.1s19.107,11.527,19.747,34.581" transform="translate(-791 -141)" fill="none" stroke="red" stroke-width="1"/>
    <path id="Path_26" data-name="Path 26" d="M1021.792,189.009l-4.286,5.613-5.2-5" transform="translate(-791 -141)" fill="none" stroke="red" stroke-width="1"/>
    <path id="Path_27" data-name="Path 27" d="M1038.5,293.5s25.829,13.887,33.514,5.562" transform="translate(-791 -141)" fill="none" stroke="red" stroke-width="1"/>
    <path id="Path_28" data-name="Path 28" d="M1065.1,297.056l6.634,2.388v6.5" transform="translate(-791 -141)" fill="none" stroke="red" stroke-width="1"/>
    <path id="Path_29" data-name="Path 29" d="M999.79,294s-19.821,15.848-32.063,10.892" transform="translate(-791 -141)" fill="none" stroke="red" stroke-width="1"/>
    <path id="Path_30" data-name="Path 30" d="M968.824,309.742l-1.429-4.8,3.776-2.756" transform="translate(-791 -141)" fill="none" stroke="red" stroke-width="1"/>
    <text id="Lung_volumes_and_airways_test" data-name="Lung volumes and airways test" transform="translate(60 301)" fill="#fff" font-size="26" font-family="MS-UIGothic, MS UI Gothic"><tspan x="0" y="0">Lung volumes and airways test</tspan></text>
  </g>
</svg>
