 <svg xmlns="http://www.w3.org/2000/svg" width="1542.84" height="401.856" viewBox="0 0 1542.84 401.856">
  <path id="Path_1" data-name="Path 1" d="M230.184-121.992c-21.528,54.1-109.848,40.848-109.848-6.072V-262.752c0-48.576,87.216-59.616,113.712-11.04L314.64-306.36c-31.464-69.552-89.424-89.976-137.448-89.976-78.384,0-155.664,45.264-155.664,133.584v134.688C21.528-39.192,98.808,5.52,175.536,5.52c49.128,0,108.192-24.288,140.76-87.768ZM648.6-312.984c-27.048-62.376-85.008-83.352-135.792-83.352-77.28,0-154.56,44.16-154.56,132.48V-129.72c0,89.976,77.28,135.24,154.56,135.24,78.384,0,153.456-45.264,153.456-135.24v-97.152H508.944v82.8H571.32v14.352c0,60.72-114.264,61.272-114.264,0V-263.856c0-51.336,87.216-63.48,108.744-11.04Zm177.744-77.832H727.536V0h98.808ZM903.624,0h98.808V-156.216l-12.7-75.624,2.76-.552,34.224,78.384L1115.04,0h99.912V-390.816H1116.7v177.192c.552,0,10.488,67.344,11.04,67.344l-2.76.552-33.12-78.384-94.392-166.7h-93.84Zm488.52-298.08h172.224v-92.736H1292.232V0h272.136V-93.288H1392.144V-151.8h158.424v-85.56H1392.144Z" transform="translate(-21.528 396.336)" fill="#68DEA6"/>
</svg>
